<svg width="655" height="607" viewBox="0 0 655 607" fill="none" xmlns="http://www.w3.org/2000/svg">
<path d="M62.4805 426.781V24.6816H618.698L611.715 413.614L323.501 594.903L62.4805 426.781Z" fill="url(#paint0_linear_323_2)" stroke="#5594DE"/>
<path d="M82.9873 428.47L322.635 582.643L586.41 414.227" stroke="#65A4EF" stroke-width="4"/>
<path d="M95.7275 427.398L323.018 571.135L574.368 413.643" stroke="#65A4EF" stroke-width="4"/>
<path d="M112.744 427.495L323.164 561.051L561.54 413.35" stroke="#65A4EF" stroke-width="4"/>
<path d="M83.0146 418.203L355.25 249.16L588.244 401.935" stroke="#65A4EF" stroke-width="5"/>
<path d="M96.0771 418.226L356.358 256.75L575.939 402.52" stroke="#65A4EF" stroke-width="4"/>
<path d="M109.952 417.935L354.875 266.031L564.072 403.204" stroke="#65A4EF" stroke-width="5"/>
<path d="M323.181 591.245L324.315 538.174" stroke="#5594DE" stroke-width="21" stroke-linecap="round"/>
<path d="M534.402 486.224C544.522 486.224 552.727 476.571 552.727 464.664C552.727 452.756 544.522 443.104 534.402 443.104C524.281 443.104 516.076 452.756 516.076 464.664C516.076 476.571 524.281 486.224 534.402 486.224Z" fill="url(#paint1_radial_323_2)"/>
<path d="M468.779 532.857C478.9 532.857 487.105 523.204 487.105 511.296C487.105 499.389 478.9 489.736 468.779 489.736C458.659 489.736 450.454 499.389 450.454 511.296C450.454 523.204 458.659 532.857 468.779 532.857Z" fill="url(#paint2_radial_323_2)"/>
<path d="M395.129 575.978C405.25 575.978 413.454 566.325 413.454 554.418C413.454 542.51 405.25 532.857 395.129 532.857C385.008 532.857 376.804 542.51 376.804 554.418C376.804 566.325 385.008 575.978 395.129 575.978Z" fill="url(#paint3_radial_323_2)"/>
<path d="M264.758 579.294C274.879 579.294 283.083 569.641 283.083 557.734C283.083 545.827 274.879 536.174 264.758 536.174C254.637 536.174 246.433 545.827 246.433 557.734C246.433 569.641 254.637 579.294 264.758 579.294Z" fill="url(#paint4_radial_323_2)"/>
<path d="M192.678 532.857C202.799 532.857 211.003 523.204 211.003 511.296C211.003 499.389 202.799 489.736 192.678 489.736C182.557 489.736 174.353 499.389 174.353 511.296C174.353 523.204 182.557 532.857 192.678 532.857Z" fill="url(#paint5_radial_323_2)"/>
<path d="M114.316 486.224C124.436 486.224 132.641 476.571 132.641 464.664C132.641 452.756 124.436 443.104 114.316 443.104C104.195 443.104 95.9902 452.756 95.9902 464.664C95.9902 476.571 104.195 486.224 114.316 486.224Z" fill="url(#paint6_radial_323_2)"/>
<path d="M212.051 200.383L250.098 224.089L268.074 216.552V430.032L212.051 426.506V200.383Z" fill="url(#paint7_linear_323_2)"/>
<path d="M229.456 186.293C229.801 186.023 230.258 186.011 230.614 186.264L267.571 212.445C268.192 212.885 268.225 213.884 267.635 214.374L251.113 228.097C250.764 228.385 250.292 228.405 249.926 228.143L212.502 201.52C211.872 201.071 211.851 200.051 212.464 199.573L229.456 186.293Z" fill="#04EEFF"/>
<path d="M229.557 191.949C229.843 191.738 230.213 191.733 230.503 191.937L260.831 213.232C261.249 213.525 261.269 214.198 260.871 214.524L250.924 222.627C250.635 222.861 250.249 222.877 249.947 222.664L219.307 201.186C218.769 200.809 218.759 199.937 219.288 199.547L229.557 191.949Z" fill="#283AA4"/>
<path d="M323.835 540.271L127.579 413.935V402.521L227.234 348.962L331.95 403.204L436.754 336.572L539.114 391.887V403.204L323.835 540.271Z" fill="#113397"/>
<path d="M323.923 528.857L127.667 402.521L227.322 337.548L332.038 391.79L436.842 325.158L539.202 391.79L323.923 528.857Z" fill="#5594DE"/>
<path d="M174.352 392.96V271.989L254.633 261.062L329.331 374.229L481.606 277.452V392.374L329.331 492.078L174.352 392.96Z" fill="url(#paint8_linear_323_2)"/>
<path d="M330.029 471.006V375.888M176.186 374.814L330.029 471.006L176.186 374.814ZM480.21 375.985L330.029 471.006L480.21 375.985Z" stroke="#8EEBFF" stroke-opacity="0.5" stroke-width="22" stroke-linecap="round"/>
<path d="M423.055 338.561L389.459 359.875C389.35 359.943 389.282 360.072 389.282 360.212V433.62C389.282 433.694 389.319 433.761 389.376 433.794L391.289 434.91L423.411 412.88C423.514 412.807 423.577 412.682 423.577 412.546V338.9C423.577 338.602 423.289 338.414 423.055 338.561Z" fill="#152689"/>
<path d="M383.087 440.373L390.853 434.715L444.271 438.994C444.362 439.001 444.433 439.087 444.433 439.189V440.763L409.44 463.884L408.762 464.138C408.517 464.228 408.262 464.275 408.004 464.275C407.453 464.275 406.905 464.177 406.379 463.986L391.377 458.519L383.785 455.787L383.087 440.373Z" fill="#152689"/>
<path d="M423.578 412.764L391.028 434.199C390.922 434.269 390.857 434.398 390.857 434.536L390.855 443.861C390.855 444.005 390.993 444.101 391.109 444.035L408.481 434.312L423.761 423.128C423.864 423.052 423.923 422.923 423.92 422.787L423.578 412.764Z" fill="#283AA4"/>
<path d="M423.839 422.129L390.854 443.982L400.018 449.492C400.072 449.523 400.135 449.523 400.187 449.49L434.573 427.592L423.839 422.129Z" fill="#0FA6D2"/>
<path d="M434.572 427.494L400.192 449.526C400.082 449.597 400.016 449.725 400.016 449.866V456.273L434.572 434.017V427.494Z" fill="#283AA4"/>
<path d="M434.572 434.031L400.016 456.274L409.259 461.946C409.419 462.046 409.615 462.042 409.773 461.94L444.279 439.584C444.525 439.424 444.508 439.02 444.248 438.89L434.572 434.031Z" fill="#0FA6D2"/>
<path d="M417.291 342.867L390.763 360.262C390.656 360.332 390.592 360.461 390.592 360.599V431.933C390.592 432.085 390.738 432.179 390.854 432.103L417.645 414.535C417.752 414.465 417.818 414.336 417.818 414.197V343.203C417.818 342.902 417.525 342.713 417.291 342.867Z" fill="#04EEFF"/>
<path d="M409.041 355.573L397.636 362.199C396.637 362.78 396.248 364.155 396.767 365.272C397.286 366.388 398.516 366.823 399.515 366.243L410.92 359.617C411.919 359.037 412.308 357.661 411.789 356.545C411.27 355.428 410.039 354.993 409.041 355.573Z" fill="#3E3E3E"/>
<path d="M409.041 366.499L397.636 373.125C396.637 373.705 396.248 375.081 396.767 376.198C397.286 377.314 398.516 377.749 399.515 377.169L410.92 370.543C411.919 369.963 412.308 368.587 411.789 367.47C411.27 366.354 410.039 365.919 409.041 366.499Z" fill="#3E3E3E"/>
<path d="M409.041 377.62L397.636 384.246C396.637 384.826 396.248 386.202 396.767 387.319C397.286 388.435 398.516 388.87 399.515 388.29L410.92 381.664C411.919 381.084 412.308 379.708 411.789 378.591C411.27 377.475 410.039 377.04 409.041 377.62Z" fill="#3E3E3E"/>
<path d="M409.041 388.353L397.636 394.979C396.637 395.559 396.248 396.934 396.767 398.051C397.286 399.168 398.516 399.602 399.515 399.022L410.92 392.396C411.919 391.816 412.308 390.44 411.789 389.324C411.27 388.207 410.039 387.773 409.041 388.353Z" fill="#3E3E3E"/>
<path d="M409.041 399.669L397.636 406.295C396.637 406.875 396.248 408.251 396.767 409.367C397.286 410.484 398.516 410.919 399.515 410.339L410.92 403.713C411.919 403.132 412.308 401.757 411.789 400.64C411.27 399.524 410.039 399.089 409.041 399.669Z" fill="#3E3E3E"/>
<path d="M409.041 409.23L397.636 415.856C396.637 416.436 396.248 417.811 396.767 418.928C397.286 420.045 398.516 420.479 399.515 419.899L410.92 413.273C411.919 412.693 412.308 411.317 411.789 410.201C411.27 409.084 410.039 408.649 409.041 409.23Z" fill="#3E3E3E"/>
<path d="M323.048 169.749L174.352 271.208L253.499 260.087L406.821 157.262L323.048 169.749Z" fill="url(#paint9_linear_323_2)"/>
<path d="M486.58 275.013L406.297 157.262L253.499 259.989L329.68 374.229L486.58 275.013Z" fill="url(#paint10_linear_323_2)"/>
<path d="M331.114 236.045L351.146 205.65H375.406L419.299 235.796L394.603 229.064L368.424 265.941V309.634C368.424 309.822 368.21 309.902 368.11 309.75L331.086 253.129C327.756 248.039 327.768 241.122 331.114 236.045Z" fill="url(#paint11_radial_323_2)"/>
<path d="M331.114 236.045L351.146 205.65H375.406L419.299 235.796L394.603 229.064L368.424 265.941V309.634C368.424 309.822 368.21 309.902 368.11 309.75L331.086 253.129C327.756 248.039 327.768 241.122 331.114 236.045Z" fill="url(#paint12_linear_323_2)"/>
<path d="M419.212 276.575L368.689 309.766C368.573 309.842 368.427 309.748 368.427 309.598L368.512 266.136L394.517 229.162L419.08 235.761C419.158 235.78 419.212 235.86 419.212 235.95V276.575Z" fill="#242F91"/>
<path d="M379.071 292.866V271.535C379.071 268.485 379.611 265.467 380.66 262.653L380.808 262.251C382.667 257.256 385.133 252.57 388.134 248.324L388.26 248.146C389.114 246.939 390.07 245.828 391.115 244.827L392.512 243.493C398.48 237.782 407.694 242.523 407.694 251.307V272.77L379.071 292.866Z" fill="url(#paint13_linear_323_2)"/>
<path d="M347.045 387.691L384.657 364.18V393.154L347.57 417.395C347.338 417.547 347.045 417.36 347.045 417.058V387.691Z" fill="#152689"/>
<path d="M347.831 388.038L380.293 367.791V390.132L347.831 410.423V388.038Z" fill="url(#paint14_linear_323_2)"/>
<path d="M354.773 413.838H354.462C353.981 413.838 353.59 414.275 353.59 414.813V419.124C353.59 420.296 353.677 421.465 353.848 422.622L354.567 427.496L355.405 420.883L355.644 414.856C355.667 414.302 355.271 413.838 354.773 413.838Z" fill="#D9D9D9"/>
<path d="M360.183 410.324H359.873C359.391 410.324 359 410.761 359 411.3V415.61C359 416.783 359.087 417.951 359.258 419.108L359.977 423.982L360.815 417.37L361.054 411.343C361.077 410.789 360.681 410.324 360.183 410.324Z" fill="#D9D9D9"/>
<path d="M365.42 407.008H365.109C364.627 407.008 364.236 407.445 364.236 407.983V412.293C364.236 413.466 364.324 414.635 364.495 415.792L365.214 420.666L366.051 414.053L366.291 408.026C366.313 407.472 365.917 407.008 365.42 407.008Z" fill="#D9D9D9"/>
<path d="M370.655 403.887H370.344C369.863 403.887 369.472 404.324 369.472 404.862V409.172C369.472 410.345 369.559 411.514 369.73 412.671L370.449 417.545L371.287 410.932L371.526 404.905C371.549 404.351 371.152 403.887 370.655 403.887Z" fill="#D9D9D9"/>
<path d="M375.891 399.984H375.581C375.099 399.984 374.708 400.421 374.708 400.96V405.27C374.708 406.443 374.795 407.611 374.966 408.768L375.685 413.642L376.523 407.03L376.762 401.003C376.785 400.449 376.389 399.984 375.891 399.984Z" fill="#D9D9D9"/>
<path d="M381.127 396.668H380.816C380.334 396.668 379.943 397.105 379.943 397.644V401.954C379.943 403.126 380.031 404.295 380.202 405.452L380.921 410.326L381.758 403.714L381.998 397.686C382.02 397.132 381.624 396.668 381.127 396.668Z" fill="#D9D9D9"/>
<path d="M430.839 333.353L468.449 309.842V338.816L431.364 363.057C431.132 363.209 430.839 363.022 430.839 362.72V333.353Z" fill="#152689"/>
<path d="M431.625 333.698L464.087 313.451V335.792L431.625 356.084V333.698Z" fill="url(#paint15_linear_323_2)"/>
<path d="M438.565 359.498H438.256C437.775 359.498 437.384 359.935 437.384 360.474V364.784C437.384 365.956 437.469 367.125 437.64 368.282L438.361 373.156L439.199 366.544L439.438 360.517C439.461 359.962 439.063 359.498 438.565 359.498Z" fill="#D9D9D9"/>
<path d="M443.975 355.986H443.667C443.185 355.986 442.794 356.423 442.794 356.962V361.272C442.794 362.445 442.879 363.613 443.05 364.77L443.771 369.644L444.609 363.032L444.848 357.005C444.871 356.451 444.473 355.986 443.975 355.986Z" fill="#D9D9D9"/>
<path d="M449.212 352.668H448.903C448.421 352.668 448.03 353.105 448.03 353.644V357.954C448.03 359.126 448.116 360.295 448.287 361.452L449.008 366.326L449.845 359.714L450.084 353.686C450.107 353.132 449.709 352.668 449.212 352.668Z" fill="#D9D9D9"/>
<path d="M454.447 349.547H454.138C453.657 349.547 453.266 349.984 453.266 350.522V354.833C453.266 356.005 453.351 357.174 453.522 358.331L454.243 363.205L455.081 356.592L455.32 350.565C455.342 350.011 454.945 349.547 454.447 349.547Z" fill="#D9D9D9"/>
<path d="M459.683 345.645H459.375C458.893 345.645 458.502 346.082 458.502 346.62V350.93C458.502 352.103 458.587 353.272 458.759 354.429L459.479 359.303L460.317 352.69L460.556 346.663C460.579 346.109 460.181 345.645 459.683 345.645Z" fill="#D9D9D9"/>
<path d="M464.919 342.328H464.61C464.128 342.328 463.737 342.765 463.737 343.304V347.614C463.737 348.786 463.823 349.955 463.994 351.112L464.715 355.986L465.552 349.374L465.791 343.347C465.814 342.792 465.416 342.328 464.919 342.328Z" fill="#D9D9D9"/>
<path d="M244.861 425.701L261.057 425.348L262.747 522.39C262.775 524.005 261.626 525.34 260.18 525.371L249.218 525.611C247.772 525.642 246.579 524.356 246.549 522.741L244.861 425.701Z" fill="url(#paint16_linear_323_2)"/>
<path d="M205.64 365.329C205.602 361.766 207.345 358.482 210.162 356.812L268.414 322.263C271.175 320.624 274.495 320.657 277.24 322.349L284.329 326.718C285.387 327.369 286.279 328.31 286.923 329.451L283.752 347.068L224.032 369.953L230.027 437.642L227.671 444.764L224.348 446.791C224.018 446.992 223.629 447.035 223.268 446.912L210.138 442.412C207.951 441.663 206.447 439.423 206.419 436.873L205.64 365.329Z" fill="url(#paint17_linear_323_2)"/>
<path d="M219.274 372.754C219.218 369.164 220.97 365.851 223.811 364.175L283.99 328.674C285.488 327.79 287.299 328.986 287.329 330.878L288.474 404.202C288.523 407.377 286.997 410.315 284.507 411.841L227.867 446.565C224.525 448.614 220.417 445.949 220.351 441.688L219.274 372.754Z" fill="#00D2E1"/>
<path d="M263.962 402.448C262.758 401.549 261.403 400.915 259.979 400.585C258.555 400.253 257.087 400.234 255.66 400.524C254.234 400.815 252.874 401.412 251.663 402.28C250.45 403.149 249.408 404.271 248.595 405.584L257.771 412.446L263.962 402.448Z" fill="white"/>
<path d="M273.203 364.279H268.216C251.301 364.279 236.126 375.907 230.026 393.546C234.746 379.899 244.482 369.178 256.759 364.111L257.099 363.968C262.825 361.606 268.962 360.753 275.03 361.481L275.508 361.537C275.548 361.543 275.578 361.58 275.578 361.623C275.578 363.088 274.515 364.279 273.203 364.279Z" stroke="white" stroke-width="4"/>
<path d="M237.183 399.204C241.654 386.071 253.138 377.611 265.695 378.2L268.824 378.347C269.814 378.392 270.625 377.486 270.587 376.38C270.585 376.351 270.566 376.327 270.54 376.323L270.222 376.269C265.732 375.498 261.14 375.974 256.854 377.656C247.991 381.131 240.911 388.727 237.439 398.482L237.183 399.204Z" stroke="white" stroke-width="5"/>
<path d="M243.637 404.88C246.138 396.156 253.726 390.545 261.885 391.386L263.688 391.571C264.353 391.639 264.913 391.021 264.857 390.275C264.856 390.26 264.845 390.244 264.83 390.242L264.355 390.131C261.571 389.481 258.684 389.661 255.983 390.652C250.284 392.74 245.799 397.711 243.883 404.064L243.637 404.88Z" stroke="white" stroke-width="4"/>
<path d="M227.121 391.007L221.825 400.537L246.879 417.938L252.175 408.408L227.121 391.007Z" fill="#00D2E1"/>
<path d="M460.596 425.229L447.472 414.658V408.034L460.577 404.504L475.571 408.049V415.015L460.596 425.229Z" fill="#152689" stroke="#152689" stroke-width="7"/>
<path d="M447.041 407.868C446.811 407.706 446.83 407.321 447.074 407.189L462.569 398.715L475.658 406.997C476.009 407.218 476.014 407.78 475.669 408.01L461.459 417.434C461.176 417.621 460.823 417.616 460.548 417.419L447.041 407.868Z" fill="#04EEFF"/>
<path d="M452.969 358.425L455.92 357.006C459.228 355.416 462.964 355.354 466.312 356.837L469.898 358.425L472.254 407.203L461.085 414.715L450.438 407.203L452.969 358.425Z" fill="url(#paint18_linear_323_2)"/>
<path d="M452.969 358.425L455.92 357.006C459.228 355.416 462.964 355.354 466.312 356.837L469.898 358.425L472.254 407.203L461.085 414.715L450.438 407.203L452.969 358.425Z" fill="url(#paint19_linear_323_2)" fill-opacity="0.2"/>
<path d="M373.436 481.422L360.312 470.851V464.227L373.417 460.697L388.41 464.243V471.208L373.436 481.422Z" fill="#152689" stroke="#152689" stroke-width="7"/>
<path d="M359.88 464.061C359.65 463.899 359.667 463.515 359.914 463.382L375.408 454.908L388.498 463.191C388.847 463.411 388.852 463.973 388.506 464.203L374.296 473.627C374.015 473.815 373.663 473.809 373.385 473.612L359.88 464.061Z" fill="#04EEFF"/>
<path d="M365.809 414.618L368.76 413.2C372.067 411.61 375.804 411.547 379.152 413.03L382.738 414.618L385.094 463.397L373.924 470.909L363.278 463.397L365.809 414.618Z" fill="url(#paint20_linear_323_2)"/>
<path d="M365.809 414.618L368.76 413.2C372.067 411.61 375.804 411.547 379.152 413.03L382.738 414.618L385.094 463.397L373.924 470.909L363.278 463.397L365.809 414.618Z" fill="url(#paint21_linear_323_2)" fill-opacity="0.2"/>
<path d="M526.845 249.867L542.421 249.523L544.57 374.691C544.598 376.309 543.448 377.643 542.002 377.676L531.662 377.905C530.217 377.936 529.021 376.652 528.993 375.036L526.845 249.867Z" fill="url(#paint22_linear_323_2)"/>
<path d="M488.915 182.316C488.915 178.72 490.631 175.303 493.372 173.435L548.708 135.753C551.664 133.739 555.246 133.717 558.024 135.694L564.499 140.301C565.571 141.063 566.454 142.122 567.077 143.39L564.066 162.892L506.687 188.068L512.605 263.048L510.356 270.929L509.247 272.868C508.942 273.401 508.406 273.695 507.877 273.621L493.146 271.53C490.697 271.182 488.915 268.833 488.915 265.953V182.316Z" fill="url(#paint23_linear_323_2)"/>
<path d="M502.109 190.655C502.051 186.991 503.783 183.483 506.584 181.585L564.199 142.562C565.666 141.568 567.434 142.66 567.464 144.579L568.745 226.637C568.796 229.872 567.295 232.977 564.846 234.699L510.683 272.833C507.409 275.139 503.39 272.712 503.322 268.386L502.109 190.655Z" fill="#05E6F9"/>
<path d="M555.935 191.833L548.553 227.765C548.445 228.297 548.02 228.674 547.532 228.674H538.603C536.753 228.674 534.964 229.421 533.566 230.777L523.733 240.33C522.407 241.618 520.793 242.482 519.065 242.833L512.567 244.148C512.438 244.174 512.33 244.037 512.37 243.897L522.428 208.302C522.613 207.652 523.15 207.211 523.759 207.211H528.498C530.257 207.211 532.001 206.852 533.645 206.154L541.462 202.831C543.025 202.166 544.493 201.249 545.818 200.107L555.658 191.635C555.703 191.596 555.735 191.59 555.757 191.59C555.787 191.589 555.824 191.599 555.858 191.625C555.895 191.651 555.918 191.684 555.93 191.713C555.939 191.736 555.947 191.772 555.935 191.833Z" stroke="white" stroke-width="3"/>
<path d="M522.707 241.162L526.135 234.735C527.438 232.292 528.191 229.533 528.329 226.694L528.711 218.786C528.838 216.168 529.423 213.604 530.432 211.235L532.573 206.207" stroke="white" stroke-width="4"/>
<path d="M545.451 199.922L543.366 204.507C542.21 207.044 541.626 209.857 541.661 212.704L541.718 217.406C541.75 220.03 541.32 222.637 540.456 225.078L539.245 228.498" stroke="white" stroke-width="5"/>
<path d="M553.799 184.028C553.799 190.19 549.931 200.374 543.402 214.255C537.116 200.244 533.004 190.19 533.004 184.028C533.004 177.866 537.66 172.871 543.402 172.871C549.144 172.871 553.799 177.866 553.799 184.028Z" fill="#F7F7F7"/>
<path d="M549.688 184.288C549.688 188.444 546.873 191.812 543.402 191.812C539.929 191.812 537.115 188.444 537.115 184.288C537.115 180.132 539.929 176.764 543.402 176.764C546.873 176.764 549.688 180.132 549.688 184.288Z" fill="#05E6F9"/>
<defs>
<linearGradient id="paint0_linear_323_2" x1="334.523" y1="98.3372" x2="334.523" y2="594.903" gradientUnits="userSpaceOnUse">
<stop stop-color="#0C25B8" stop-opacity="0.12"/>
<stop offset="0.65848" stop-color="#02147B" stop-opacity="0.85"/>
<stop offset="0.893636" stop-color="#1D9FE4"/>
</linearGradient>
<radialGradient id="paint1_radial_323_2" cx="0" cy="0" r="1" gradientUnits="userSpaceOnUse" gradientTransform="translate(534.244 460.352) rotate(90) scale(25.8721 21.9904)">
<stop stop-color="#AACCFF"/>
<stop offset="1" stop-color="#005FCF" stop-opacity="0"/>
</radialGradient>
<radialGradient id="paint2_radial_323_2" cx="0" cy="0" r="1" gradientUnits="userSpaceOnUse" gradientTransform="translate(468.622 506.984) rotate(90) scale(25.8721 21.9904)">
<stop stop-color="#AACCFF"/>
<stop offset="1" stop-color="#005FCF" stop-opacity="0"/>
</radialGradient>
<radialGradient id="paint3_radial_323_2" cx="0" cy="0" r="1" gradientUnits="userSpaceOnUse" gradientTransform="translate(394.972 550.106) rotate(90) scale(25.8721 21.9904)">
<stop stop-color="#AACCFF"/>
<stop offset="1" stop-color="#005FCF" stop-opacity="0"/>
</radialGradient>
<radialGradient id="paint4_radial_323_2" cx="0" cy="0" r="1" gradientUnits="userSpaceOnUse" gradientTransform="translate(264.601 553.422) rotate(90) scale(25.8721 21.9904)">
<stop stop-color="#AACCFF"/>
<stop offset="1" stop-color="#005FCF" stop-opacity="0"/>
</radialGradient>
<radialGradient id="paint5_radial_323_2" cx="0" cy="0" r="1" gradientUnits="userSpaceOnUse" gradientTransform="translate(192.521 506.984) rotate(90) scale(25.8721 21.9904)">
<stop stop-color="#AACCFF"/>
<stop offset="1" stop-color="#005FCF" stop-opacity="0"/>
</radialGradient>
<radialGradient id="paint6_radial_323_2" cx="0" cy="0" r="1" gradientUnits="userSpaceOnUse" gradientTransform="translate(114.159 460.352) rotate(90) scale(25.8721 21.9904)">
<stop stop-color="#AACCFF"/>
<stop offset="1" stop-color="#005FCF" stop-opacity="0"/>
</radialGradient>
<linearGradient id="paint7_linear_323_2" x1="265.98" y1="298.978" x2="219.553" y2="298.664" gradientUnits="userSpaceOnUse">
<stop stop-color="#0F61A3"/>
<stop offset="0.302083" stop-color="#1D51A0"/>
<stop offset="0.411458" stop-color="#1972B0"/>
<stop offset="0.881803" stop-color="#1BA6C9"/>
</linearGradient>
<linearGradient id="paint8_linear_323_2" x1="418.69" y1="428.861" x2="210.709" y2="386.608" gradientUnits="userSpaceOnUse">
<stop offset="0.36543" stop-color="#1F36A0"/>
<stop offset="0.547118" stop-color="#0B29B4" stop-opacity="0.99"/>
<stop offset="1" stop-color="#1F36A0" stop-opacity="0.78"/>
</linearGradient>
<linearGradient id="paint9_linear_323_2" x1="337.01" y1="173.651" x2="230.267" y2="239.753" gradientUnits="userSpaceOnUse">
<stop stop-color="#33DDFF"/>
<stop offset="1" stop-color="#7ACFFF" stop-opacity="0.68"/>
</linearGradient>
<linearGradient id="paint10_linear_323_2" x1="410.312" y1="192.382" x2="305.944" y2="311.392" gradientUnits="userSpaceOnUse">
<stop stop-color="#00B5EB"/>
<stop offset="1" stop-color="#7BCEFF" stop-opacity="0.76"/>
</linearGradient>
<radialGradient id="paint11_radial_323_2" cx="0" cy="0" r="1" gradientUnits="userSpaceOnUse" gradientTransform="translate(328.981 243.015) rotate(40.7729) scale(49.8942 40.1061)">
<stop offset="0.00973999" stop-color="#254F97"/>
<stop offset="0.0495598" stop-color="#2B488C"/>
<stop offset="0.0886966" stop-color="#293581"/>
<stop offset="0.785285" stop-color="#196DB3"/>
<stop offset="0.855182" stop-color="#128ACD"/>
<stop offset="0.875308" stop-color="#1583C7"/>
<stop offset="0.966643" stop-color="#1B73B9"/>
<stop offset="0.998112" stop-color="#284A8D"/>
</radialGradient>
<linearGradient id="paint12_linear_323_2" x1="375.842" y1="198.724" x2="351.056" y2="242.137" gradientUnits="userSpaceOnUse">
<stop offset="0.342457" stop-color="#0E8CC9"/>
<stop offset="0.382498" stop-color="#1498D8"/>
<stop offset="0.557152" stop-color="#1480CC"/>
<stop offset="1" stop-color="#1488CD" stop-opacity="0.12"/>
</linearGradient>
<linearGradient id="paint13_linear_323_2" x1="401.498" y1="246.624" x2="383.351" y2="276.231" gradientUnits="userSpaceOnUse">
<stop offset="0.500546" stop-color="#0FA6D0"/>
<stop offset="0.544237" stop-color="#04EEFF"/>
</linearGradient>
<linearGradient id="paint14_linear_323_2" x1="362.142" y1="394.229" x2="381.597" y2="377.086" gradientUnits="userSpaceOnUse">
<stop offset="0.604213" stop-color="#04EEFF"/>
<stop offset="0.679349" stop-color="#0FA6D1"/>
</linearGradient>
<linearGradient id="paint15_linear_323_2" x1="445.936" y1="339.889" x2="465.391" y2="322.746" gradientUnits="userSpaceOnUse">
<stop offset="0.604213" stop-color="#04EEFF"/>
<stop offset="0.679349" stop-color="#0FA6D1"/>
</linearGradient>
<linearGradient id="paint16_linear_323_2" x1="253.762" y1="442.518" x2="253.762" y2="499.198" gradientUnits="userSpaceOnUse">
<stop stop-color="#00EEFF" stop-opacity="0.71"/>
<stop offset="0.991891" stop-color="#1A3AA7" stop-opacity="0.62"/>
</linearGradient>
<linearGradient id="paint17_linear_323_2" x1="253.665" y1="333.695" x2="203.458" y2="429.954" gradientUnits="userSpaceOnUse">
<stop offset="0.107764" stop-color="#0B9EA9"/>
<stop offset="0.404355" stop-color="#0CC5D2"/>
<stop offset="0.435976" stop-color="#1861D2"/>
<stop offset="0.757447" stop-color="#2B488C"/>
</linearGradient>
<linearGradient id="paint18_linear_323_2" x1="461.434" y1="358.425" x2="461.434" y2="407.984" gradientUnits="userSpaceOnUse">
<stop offset="0.187143" stop-color="#2992F3" stop-opacity="0.19"/>
<stop offset="0.691114" stop-color="#0073DD" stop-opacity="0.75"/>
</linearGradient>
<linearGradient id="paint19_linear_323_2" x1="470.422" y1="405.838" x2="451.137" y2="405.838" gradientUnits="userSpaceOnUse">
<stop offset="0.0283352" stop-color="#04EEFF"/>
<stop offset="0.20208" stop-color="#0A2755"/>
<stop offset="0.282888" stop-color="#1861D2"/>
<stop offset="0.490659" stop-color="#0A2755" stop-opacity="0.726008"/>
<stop offset="0.603127" stop-color="#106FDC"/>
<stop offset="0.804123" stop-color="#0A2755"/>
<stop offset="0.923681" stop-color="#0FA6D1"/>
</linearGradient>
<linearGradient id="paint20_linear_323_2" x1="374.274" y1="414.618" x2="374.274" y2="464.177" gradientUnits="userSpaceOnUse">
<stop offset="0.187143" stop-color="#2992F3" stop-opacity="0.19"/>
<stop offset="0.691114" stop-color="#0073DD" stop-opacity="0.75"/>
</linearGradient>
<linearGradient id="paint21_linear_323_2" x1="383.262" y1="462.031" x2="363.976" y2="462.031" gradientUnits="userSpaceOnUse">
<stop offset="0.0283352" stop-color="#04EEFF"/>
<stop offset="0.20208" stop-color="#0A2755"/>
<stop offset="0.282888" stop-color="#1861D2"/>
<stop offset="0.490659" stop-color="#0A2755" stop-opacity="0.726008"/>
<stop offset="0.603127" stop-color="#106FDC"/>
<stop offset="0.804123" stop-color="#0A2755"/>
<stop offset="0.923681" stop-color="#0FA6D1"/>
</linearGradient>
<linearGradient id="paint22_linear_323_2" x1="535.494" y1="271.474" x2="534.995" y2="344.091" gradientUnits="userSpaceOnUse">
<stop stop-color="#00EEFF" stop-opacity="0.71"/>
<stop offset="0.991891" stop-color="#1A3AA7" stop-opacity="0.62"/>
</linearGradient>
<linearGradient id="paint23_linear_323_2" x1="535.104" y1="147.996" x2="475.215" y2="247.332" gradientUnits="userSpaceOnUse">
<stop offset="0.107764" stop-color="#00AEBB"/>
<stop offset="0.404355" stop-color="#0CC5D2"/>
<stop offset="0.435976" stop-color="#1861D2"/>
<stop offset="0.596419" stop-color="#0043B8"/>
<stop offset="0.886396" stop-color="#001B5A"/>
</linearGradient>
</defs>
</svg>
